REM DIRINDEX 1\2\3,1\2\4,1\2\5,1\2\6
REM DIRNAME cjc157,folder01,folder02,folder03,folder04,folder05
TITLE ""
FILE "115 115.mp3" MP3
  TRACK 01 AUDIO
    TITLE "0:"
    INDEX 01 00:00:00
  TRACK 02 AUDIO
    TITLE "3:cjc157_4268"
    INDEX 01 00:00:11
  TRACK 03 AUDIO
    TITLE "0:"
    INDEX 01 00:01:52
  TRACK 04 AUDIO
    TITLE "4:cjc157_4269"
    INDEX 01 00:02:30
  TRACK 05 AUDIO
    TITLE "0:"
    INDEX 01 00:03:29
  TRACK 06 AUDIO
    TITLE "5:cjc157_4270"
    INDEX 01 00:04:01
  TRACK 07 AUDIO
    TITLE "0:"
    INDEX 01 00:06:65
  TRACK 08 AUDIO
    TITLE "3:cjc157_4271"
    INDEX 01 00:07:37
  TRACK 09 AUDIO
    TITLE "0:"
    INDEX 01 00:08:72
  TRACK 10 AUDIO
    TITLE "4:cjc157_4272"
    INDEX 01 00:09:44
  TRACK 11 AUDIO
    TITLE "0:"
    INDEX 01 00:10:55
  TRACK 12 AUDIO
    TITLE "5:cjc157_4273"
    INDEX 01 00:11:35
  TRACK 13 AUDIO
    TITLE "0:"
    INDEX 01 00:13:65
  TRACK 14 AUDIO
    TITLE "5:cjc157_4274"
    INDEX 01 00:14:35
  TRACK 15 AUDIO
    TITLE "0:"
    INDEX 01 00:16:38
  TRACK 16 AUDIO
    TITLE "5:cjc157_4275"
    INDEX 01 00:17:08
  TRACK 17 AUDIO
    TITLE "0:"
    INDEX 01 00:18:68
  TRACK 18 AUDIO
    TITLE "5:cjc157_4276"
    INDEX 01 00:19:36
  TRACK 19 AUDIO
    TITLE "0:"
    INDEX 01 00:21:45
  TRACK 20 AUDIO
    TITLE "5:cjc157_4277"
    INDEX 01 00:22:21
  TRACK 21 AUDIO
    TITLE "0:"
    INDEX 01 00:23:42
  TRACK 22 AUDIO
    TITLE "3:cjc157_4278"
    INDEX 01 00:24:10
  TRACK 23 AUDIO
    TITLE "0:"
    INDEX 01 00:25:48
  TRACK 24 AUDIO
    TITLE "4:cjc157_4279"
    INDEX 01 00:26:20
  TRACK 25 AUDIO
    TITLE "0:"
    INDEX 01 00:27:26
  TRACK 26 AUDIO
    TITLE "5:cjc157_4280"
    INDEX 01 00:27:73
  TRACK 27 AUDIO
    TITLE "0:"
    INDEX 01 00:30:22
  TRACK 28 AUDIO
    TITLE "5:cjc157_4281"
    INDEX 01 00:30:67
  TRACK 29 AUDIO
    TITLE "0:"
    INDEX 01 00:32:68
  TRACK 30 AUDIO
    TITLE "5:cjc157_4282"
    INDEX 01 00:33:36
  TRACK 31 AUDIO
    TITLE "0:"
    INDEX 01 00:36:05
  TRACK 32 AUDIO
    TITLE "3:cjc157_4283"
    INDEX 01 00:36:48
  TRACK 33 AUDIO
    TITLE "0:"
    INDEX 01 00:37:73
  TRACK 34 AUDIO
    TITLE "4:cjc157_4284"
    INDEX 01 00:38:45
  TRACK 35 AUDIO
    TITLE "0:"
    INDEX 01 00:39:60
  TRACK 36 AUDIO
    TITLE "5:cjc157_4285"
    INDEX 01 00:40:36
  TRACK 37 AUDIO
    TITLE "0:"
    INDEX 01 00:42:49
  TRACK 38 AUDIO
    TITLE "3:cjc157_4286"
    INDEX 01 00:43:21
  TRACK 39 AUDIO
    TITLE "0:"
    INDEX 01 00:44:28
  TRACK 40 AUDIO
    TITLE "4:cjc157_4287"
    INDEX 01 00:44:69
  TRACK 41 AUDIO
    TITLE "0:"
    INDEX 01 00:45:71
  TRACK 42 AUDIO
    TITLE "5:cjc157_4288"
    INDEX 01 00:46:43
  TRACK 43 AUDIO
    TITLE "0:"
    INDEX 01 00:48:40
  TRACK 44 AUDIO
    TITLE "5:cjc157_4289"
    INDEX 01 00:49:21
  TRACK 45 AUDIO
    TITLE "0:"
    INDEX 01 00:52:06
  TRACK 46 AUDIO
    TITLE "3:cjc157_4290"
    INDEX 01 00:52:59
  TRACK 47 AUDIO
    TITLE "0:"
    INDEX 01 00:54:09
  TRACK 48 AUDIO
    TITLE "4:cjc157_4291"
    INDEX 01 00:54:52
  TRACK 49 AUDIO
    TITLE "0:"
    INDEX 01 00:55:73
  TRACK 50 AUDIO
    TITLE "5:cjc157_4292"
    INDEX 01 00:56:43
  TRACK 51 AUDIO
    TITLE "0:"
    INDEX 01 00:59:18
  TRACK 52 AUDIO
    TITLE "5:cjc157_4293"
    INDEX 01 00:59:63
  TRACK 53 AUDIO
    TITLE "0:"
    INDEX 01 01:02:24
  TRACK 54 AUDIO
    TITLE "5:cjc157_4294"
    INDEX 01 01:02:67
  TRACK 55 AUDIO
    TITLE "0:"
    INDEX 01 01:05:36
  TRACK 56 AUDIO
    TITLE "3:cjc157_4295"
    INDEX 01 01:06:06
  TRACK 57 AUDIO
    TITLE "0:"
    INDEX 01 01:07:35
  TRACK 58 AUDIO
    TITLE "4:cjc157_4296"
    INDEX 01 01:08:05
  TRACK 59 AUDIO
    TITLE "0:"
    INDEX 01 01:09:20
  TRACK 60 AUDIO
    TITLE "5:cjc157_4297"
    INDEX 01 01:09:67
  TRACK 61 AUDIO
    TITLE "0:"
    INDEX 01 01:11:68
  TRACK 62 AUDIO
    TITLE "5:cjc157_4298"
    INDEX 01 01:12:42
  TRACK 63 AUDIO
    TITLE "0:"
    INDEX 01 01:14:53
  TRACK 64 AUDIO
    TITLE "3:cjc157_4299"
    INDEX 01 01:15:25
  TRACK 65 AUDIO
    TITLE "0:"
    INDEX 01 01:16:54
  TRACK 66 AUDIO
    TITLE "4:cjc157_4300"
    INDEX 01 01:17:30
  TRACK 67 AUDIO
    TITLE "0:"
    INDEX 01 01:18:33
  TRACK 68 AUDIO
    TITLE "5:cjc157_4301"
    INDEX 01 01:19:07
  TRACK 69 AUDIO
    TITLE "0:"
    INDEX 01 01:20:67
  TRACK 70 AUDIO
    TITLE "5:cjc157_4302"
    INDEX 01 01:21:35
  TRACK 71 AUDIO
    TITLE "0:"
    INDEX 01 01:23:42
  TRACK 72 AUDIO
    TITLE "3:cjc157_4303"
    INDEX 01 01:24:18
  TRACK 73 AUDIO
    TITLE "0:"
    INDEX 01 01:25:47
  TRACK 74 AUDIO
    TITLE "4:cjc157_4304"
    INDEX 01 01:26:19
  TRACK 75 AUDIO
    TITLE "0:"
    INDEX 01 01:27:26
  TRACK 76 AUDIO
    TITLE "5:cjc157_4305"
    INDEX 01 01:28:04
  TRACK 77 AUDIO
    TITLE "0:"
    INDEX 01 01:29:72
  TRACK 78 AUDIO
    TITLE "5:cjc157_4306"
    INDEX 01 01:30:48
  TRACK 79 AUDIO
    TITLE "0:"
    INDEX 01 01:32:37
  TRACK 80 AUDIO
    TITLE "3:cjc157_4307"
    INDEX 01 01:33:13
  TRACK 81 AUDIO
    TITLE "0:"
    INDEX 01 01:34:38
  TRACK 82 AUDIO
    TITLE "4:cjc157_4308"
    INDEX 01 01:35:10
  TRACK 83 AUDIO
    TITLE "0:"
    INDEX 01 01:36:13
  TRACK 84 AUDIO
    TITLE "5:cjc157_4309"
    INDEX 01 01:36:54
  TRACK 85 AUDIO
    TITLE "0:"
    INDEX 01 01:38:49
  TRACK 86 AUDIO
    TITLE "5:cjc157_4310"
    INDEX 01 01:39:19
  TRACK 87 AUDIO
    TITLE "0:"
    INDEX 01 01:41:10
